<svg xmlns="http://www.w3.org/2000/svg" viewBox="0 0 1200 900" role="img" aria-labelledby="title desc">
  <title id="title">Clair de Lune song cover</title>
  <desc id="desc">Moonlight over a quiet piano keyboard</desc>
  <rect width="1200" height="900" fill="#070707"/>
  <circle cx="860" cy="220" r="120" fill="#f8f8f8"/>
  <circle cx="810" cy="190" r="120" fill="#070707"/>
  <path d="M0 610 C180 560 320 670 510 620 C760 555 895 650 1200 585 L1200 900 L0 900 Z" fill="#151515"/>
  <rect x="160" y="580" width="880" height="160" rx="18" fill="#f5f5f5"/>
  <g fill="#050505">
    <rect x="238" y="580" width="54" height="102" rx="0"/>
    <rect x="348" y="580" width="54" height="102" rx="0"/>
    <rect x="565" y="580" width="54" height="102" rx="0"/>
    <rect x="672" y="580" width="54" height="102" rx="0"/>
    <rect x="780" y="580" width="54" height="102" rx="0"/>
  </g>
  <text x="160" y="215" fill="#f8f8f8" font-family="Inter, Arial, sans-serif" font-size="82" font-weight="750">Clair de Lune</text>
  <text x="164" y="275" fill="#bdbdbd" font-family="Inter, Arial, sans-serif" font-size="34">Claude Debussy</text>
</svg>
